<svg width="180" height="47" viewBox="0 0 180 47" fill="none" xmlns="http://www.w3.org/2000/svg">
<g clip-path="url(#clip0_2_200)">
<g filter="url(#filter0_d_2_200)">
<path fill-rule="evenodd" clip-rule="evenodd" d="M0.374635 8.6701C-1.27676 3.93188 3.83236 -0.387541 8.60125 1.71504L36.1892 13.8783C40.8336 15.9261 40.8188 22.1983 36.1644 24.224L8.51909 36.256C3.74024 38.336 -1.34825 33.9925 0.325672 29.2624L3.32908 20.7749C3.74258 19.6064 3.74561 18.3422 3.33767 17.1718L0.374635 8.6701Z" fill="#FDD04D"/>
<path fill-rule="evenodd" clip-rule="evenodd" d="M0.374635 8.6701C-1.27676 3.93188 3.83236 -0.387541 8.60125 1.71504L36.1892 13.8783C40.8336 15.9261 40.8188 22.1983 36.1644 24.224L8.51909 36.256C3.74024 38.336 -1.34825 33.9925 0.325672 29.2624L3.32908 20.7749C3.74258 19.6064 3.74561 18.3422 3.33767 17.1718L0.374635 8.6701Z" fill="#9B52DC"/>
</g>
<g filter="url(#filter1_d_2_200)">
<path d="M60.4011 29.3294C57.7873 29.3294 55.4429 28.8705 53.3678 27.9527C51.2927 27.0348 49.6665 25.7479 48.4893 24.0918C47.332 22.4158 46.7534 20.4704 46.7534 18.2556C46.7534 16.0409 47.332 14.0955 48.4893 12.4194C49.6665 10.7434 51.2827 9.45644 53.3378 8.55857C55.4129 7.64074 57.7674 7.18182 60.4011 7.18182C62.9152 7.18182 65.1499 7.5709 67.1053 8.34906C69.0806 9.12722 70.6269 10.2146 71.7443 11.6113C72.8616 13.008 73.5001 13.3514 73.54 15.1671L66.7162 15.3766C66.6164 13.8403 65.938 13.886 64.8007 12.9881C63.6834 12.0902 62.2168 11.6413 60.4011 11.6413C59.1441 11.6413 58.0068 11.9206 56.9892 12.4793C55.9916 13.018 55.2034 13.7862 54.6248 14.7838C54.0661 15.7815 53.7868 16.9387 53.7868 18.2556C53.7868 19.5525 54.0661 20.6899 54.6248 21.6675C55.2034 22.6452 55.9916 23.4034 56.9892 23.9422C58.0068 24.4809 59.1441 24.7502 60.4011 24.7502C62.1769 24.7502 63.6335 24.3013 64.7708 23.4034C65.928 22.5056 66.5765 22.1757 66.7162 20.6593L73.54 20.8089C73.4802 22.6646 72.8916 23.4234 71.7742 24.84C70.6569 26.2567 69.1105 27.3641 67.1352 28.1622C65.1798 28.9403 62.9351 29.3294 60.4011 29.3294Z" fill="#9B52DC"/>
<path d="M84.9108 29.3294C82.9155 29.3294 81.1297 28.9802 79.5535 28.2819C77.9971 27.5835 76.78 26.6158 75.9021 25.3788C75.0242 24.1217 74.5852 22.6951 74.5852 21.0989C74.5852 19.5027 75.0242 18.086 75.9021 16.8489C76.78 15.5919 77.9971 14.6142 79.5535 13.9159C81.1297 13.2175 82.9155 12.8684 84.9108 12.8684C86.9061 12.8684 88.6819 13.2175 90.2382 13.9159C91.8144 14.6142 93.0415 15.5919 93.9195 16.8489C94.7974 18.086 95.2363 19.5027 95.2363 21.0989C95.2363 22.6951 94.7974 24.1217 93.9195 25.3788C93.0415 26.6158 91.8144 27.5835 90.2382 28.2819C88.6819 28.9802 86.9061 29.3294 84.9108 29.3294ZM84.9108 25.1992C85.9683 25.1992 86.8262 24.8201 87.4847 24.0619C88.1431 23.2837 88.4723 22.2861 88.4723 21.069C88.4723 19.8319 88.1431 18.8243 87.4847 18.0461C86.8262 17.268 85.9683 16.8789 84.9108 16.8789C83.8533 16.8789 82.9953 17.268 82.3369 18.0461C81.6784 18.8243 81.3492 19.8319 81.3492 21.069C81.3492 22.2861 81.6784 23.2837 82.3369 24.0619C82.9953 24.8201 83.8533 25.1992 84.9108 25.1992Z" fill="#9B52DC"/>
</g>
<g opacity="0.9">
<path d="M108.258 12.8208V17.2803H117.835V21.4105H108.258V29.4315H101.374V8.48112H118.733V12.8208H108.258Z" fill="#3D4057"/>
<path d="M126.518 8.18182V29.4315H119.934V8.18182H126.518Z" fill="#3D4057"/>
<path d="M138.695 30.0301C136.7 30.0301 134.914 29.6809 133.338 28.9826C131.782 28.2843 130.565 27.3165 129.687 26.0795C128.809 24.8224 128.37 23.3958 128.37 21.7996C128.37 20.2034 128.809 18.7867 129.687 17.5497C130.565 16.2926 131.782 15.3149 133.338 14.6166C134.914 13.9182 136.7 13.5691 138.695 13.5691C140.691 13.5691 142.467 13.9182 144.023 14.6166C145.599 15.3149 146.826 16.2926 147.704 17.5497C148.582 18.7867 149.021 20.2034 149.021 21.7996C149.021 23.3958 148.582 24.8224 147.704 26.0795C146.826 27.3165 145.599 28.2843 144.023 28.9826C142.467 29.6809 140.691 30.0301 138.695 30.0301ZM138.695 25.8999C139.753 25.8999 140.611 25.5208 141.269 24.7626C141.928 23.9844 142.257 22.9868 142.257 21.7697C142.257 20.5326 141.928 19.525 141.269 18.7468C140.611 17.9687 139.753 17.5796 138.695 17.5796C137.638 17.5796 136.78 17.9687 136.122 18.7468C135.463 19.525 135.134 20.5326 135.134 21.7697C135.134 22.9868 135.463 23.9844 136.122 24.7626C136.78 25.5208 137.638 25.8999 138.695 25.8999Z" fill="#3D4057"/>
<path d="M148.874 14.1677H156.027L158.9 23.4457L161.773 14.1677H168.747L171.53 23.4457L174.613 14.1677H180L174.493 29.4315H167.909L164.766 19.7644L161.624 29.4315H154.441L148.874 14.1677Z" fill="#3D4057"/>
</g>
</g>
<defs>
<filter id="filter0_d_2_200" x="0" y="1.16882" width="40.8329" height="38.6214" filterUnits="userSpaceOnUse" color-interpolation-filters="sRGB">
<feFlood flood-opacity="0" result="BackgroundImageFix"/>
<feColorMatrix in="SourceAlpha" type="matrix" values="0 0 0 0 0 0 0 0 0 0 0 0 0 0 0 0 0 0 127 0" result="hardAlpha"/>
<feOffset dx="1.16883" dy="3"/>
<feComposite in2="hardAlpha" operator="out"/>
<feColorMatrix type="matrix" values="0 0 0 0 0.258824 0 0 0 0 0.0823529 0 0 0 0 0.411765 0 0 0 1 0"/>
<feBlend mode="normal" in2="BackgroundImageFix" result="effect1_dropShadow_2_200"/>
<feBlend mode="normal" in="SourceGraphic" in2="effect1_dropShadow_2_200" result="shape"/>
</filter>
<filter id="filter1_d_2_200" x="46.7534" y="7.18182" width="48.4829" height="25.1476" filterUnits="userSpaceOnUse" color-interpolation-filters="sRGB">
<feFlood flood-opacity="0" result="BackgroundImageFix"/>
<feColorMatrix in="SourceAlpha" type="matrix" values="0 0 0 0 0 0 0 0 0 0 0 0 0 0 0 0 0 0 127 0" result="hardAlpha"/>
<feOffset dy="3"/>
<feComposite in2="hardAlpha" operator="out"/>
<feColorMatrix type="matrix" values="0 0 0 0 0.257007 0 0 0 0 0.0807813 0 0 0 0 0.4125 0 0 0 1 0"/>
<feBlend mode="normal" in2="BackgroundImageFix" result="effect1_dropShadow_2_200"/>
<feBlend mode="normal" in="SourceGraphic" in2="effect1_dropShadow_2_200" result="shape"/>
</filter>
<clipPath id="clip0_2_200">
<rect width="180" height="46.7532" fill="white"/>
</clipPath>
</defs>
</svg>
