<svg width="38" height="39" viewBox="0 0 38 39" fill="none" xmlns="http://www.w3.org/2000/svg">
<path d="M18.6145 32.5696C25.8329 32.5696 31.6846 26.718 31.6846 19.4996C31.6846 12.2813 25.8329 6.42969 18.6145 6.42969C11.3961 6.42969 5.54438 12.2813 5.54438 19.4996C5.54438 21.5904 6.03531 23.5665 6.90819 25.319C7.14016 25.7847 7.21737 26.317 7.08289 26.8196L6.30442 29.729C5.96649 30.992 7.12196 32.1475 8.38497 31.8096L11.2944 31.0311C11.797 30.8966 12.3293 30.9738 12.7951 31.2058C14.5475 32.0787 16.5237 32.5696 18.6145 32.5696Z" fill="#3D4057"/>
<path d="M22.5355 19.4996C22.5355 20.2215 23.1207 20.8066 23.8425 20.8066C24.5644 20.8066 25.1495 20.2215 25.1495 19.4996C25.1495 18.7778 24.5644 18.1926 23.8425 18.1926C23.1207 18.1926 22.5355 18.7778 22.5355 19.4996Z" fill="white"/>
<path d="M17.3075 19.4996C17.3075 20.2215 17.8926 20.8066 18.6145 20.8066C19.3363 20.8066 19.9215 20.2215 19.9215 19.4996C19.9215 18.7778 19.3363 18.1926 18.6145 18.1926C17.8926 18.1926 17.3075 18.7778 17.3075 19.4996Z" fill="white"/>
<path d="M12.0794 19.4996C12.0794 20.2215 12.6646 20.8066 13.3864 20.8066C14.1083 20.8066 14.6934 20.2215 14.6934 19.4996C14.6934 18.7778 14.1083 18.1926 13.3864 18.1926C12.6646 18.1926 12.0794 18.7778 12.0794 19.4996Z" fill="white"/>
</svg>
