<svg width="22" height="25" viewBox="0 0 22 25" fill="none" xmlns="http://www.w3.org/2000/svg">
<path d="M6.49905 22.392C7.5153 23.6999 9.11178 24.5428 10.907 24.5428C12.7023 24.5428 14.2988 23.6999 15.315 22.392C12.3889 22.7934 9.42519 22.7934 6.49905 22.392Z" fill="#3D4057"/>
<path d="M19.0617 8.6391V9.50047C19.0617 10.5342 19.3531 11.5448 19.8991 12.4049L21.2372 14.5127C22.4594 16.4379 21.5263 19.0547 19.4006 19.6635C13.8398 21.2561 7.97428 21.2561 2.41342 19.6635C0.287713 19.0547 -0.645331 16.4379 0.576864 14.5127L1.91494 12.4049C2.46097 11.5448 2.75234 10.5342 2.75234 9.50047V8.6391C2.75234 3.90959 6.40332 0.0755615 10.907 0.0755615C15.4107 0.0755615 19.0617 3.90959 19.0617 8.6391Z" fill="#3D4057"/>
</svg>
