<svg width="38" height="39" viewBox="0 0 38 39" fill="none" xmlns="http://www.w3.org/2000/svg">
<path fill-rule="evenodd" clip-rule="evenodd" d="M21.2489 6.98961C20.7692 6.78729 20.1611 6.78729 18.9449 6.78729C17.7287 6.78729 17.1206 6.78729 16.6409 6.98961C16.0014 7.25936 15.4932 7.77677 15.2283 8.42801C15.1074 8.7253 15.0601 9.07103 15.0415 9.57533C15.0143 10.3165 14.641 11.0025 14.0103 11.3733C13.3795 11.7441 12.6094 11.7302 11.9655 11.3837C11.5273 11.1478 11.2096 11.0167 10.8963 10.9747C10.2099 10.8827 9.51581 11.0721 8.96659 11.5012C8.55468 11.823 8.25063 12.3593 7.64253 13.4317C7.03443 14.5042 6.73037 15.0405 6.66261 15.5646C6.57225 16.2635 6.75824 16.9703 7.17967 17.5295C7.37202 17.7848 7.64236 17.9993 8.06193 18.2678C8.67874 18.6624 9.07561 19.3347 9.07557 20.0764C9.07553 20.8181 8.67867 21.4903 8.06193 21.8848C7.64229 22.1533 7.37191 22.3679 7.17954 22.6232C6.75811 23.1824 6.57212 23.8892 6.66248 24.5881C6.73025 25.1122 7.0343 25.6485 7.6424 26.7209C8.2505 27.7934 8.55455 28.3297 8.96646 28.6515C9.51568 29.0806 10.2098 29.27 10.8962 29.178C11.2095 29.136 11.5272 29.0049 11.9653 28.7691C12.6093 28.4225 13.3794 28.4086 14.0102 28.7795C14.641 29.1503 15.0143 29.8364 15.0415 30.5775C15.0601 31.0818 15.1074 31.4275 15.2283 31.7248C15.4932 32.376 16.0014 32.8934 16.6409 33.1632C17.1206 33.3655 17.7287 33.3655 18.9449 33.3655C20.1611 33.3655 20.7692 33.3655 21.2489 33.1632C21.8885 32.8934 22.3966 32.376 22.6616 31.7248C22.7825 31.4275 22.8298 31.0817 22.8483 30.5774C22.8756 29.8363 23.2488 29.1503 23.8795 28.7795C24.5103 28.4086 25.2805 28.4224 25.9245 28.769C26.3626 29.0048 26.6803 29.1359 26.9936 29.1779C27.6799 29.2699 28.3741 29.0805 28.9233 28.6514C29.3352 28.3296 29.6392 27.7933 30.2473 26.7208C30.8554 25.6484 31.1595 25.1121 31.2273 24.588C31.3176 23.8891 31.1316 23.1823 30.7102 22.6231C30.5178 22.3678 30.2475 22.1532 29.8279 21.8848C29.2111 21.4902 28.8143 20.818 28.8143 20.0763C28.8143 19.3347 29.2112 18.6625 29.8279 18.268C30.2475 17.9995 30.5179 17.7849 30.7103 17.5296C31.1318 16.9704 31.3177 16.2636 31.2274 15.5647C31.1596 15.0406 30.8556 14.5043 30.2475 13.4318C29.6394 12.3594 29.3353 11.8231 28.9234 11.5013C28.3742 11.0722 27.6801 10.8828 26.9937 10.9748C26.6804 11.0168 26.3627 11.1479 25.9246 11.3837C25.2806 11.7303 24.5105 11.7441 23.8796 11.3733C23.2488 11.0025 22.8756 10.3164 22.8483 9.57526C22.8298 9.07099 22.7825 8.72528 22.6616 8.42801C22.3966 7.77677 21.8885 7.25936 21.2489 6.98961ZM18.9449 24.0631C21.1073 24.0631 22.8602 22.2782 22.8602 20.0764C22.8602 17.8746 21.1073 16.0897 18.9449 16.0897C16.7826 16.0897 15.0296 17.8746 15.0296 20.0764C15.0296 22.2782 16.7826 24.0631 18.9449 24.0631Z" fill="#3D4057"/>
</svg>
