<svg width="28" height="28" viewBox="0 0 28 28" fill="none" xmlns="http://www.w3.org/2000/svg">
<path d="M10.5002 20.125C10.0169 20.125 9.62516 20.5167 9.62516 21C9.62516 21.4832 10.0169 21.875 10.5002 21.875H17.5002C17.9834 21.875 18.3752 21.4832 18.3752 21C18.3752 20.5167 17.9834 20.125 17.5002 20.125H10.5002Z" fill="#3D4057"/>
<path fill-rule="evenodd" clip-rule="evenodd" d="M14.0002 1.45831C13.174 1.45831 12.4234 1.69494 11.6091 2.09093C10.822 2.47372 9.91265 3.03808 8.77683 3.74302L6.36583 5.23936C5.2911 5.90636 4.43051 6.44045 3.76721 6.94842C3.08034 7.47445 2.55277 8.01019 2.17169 8.70638C1.79141 9.40112 1.62016 10.1403 1.53805 11.0141C1.45848 11.8609 1.45849 12.8964 1.4585 14.1951V16.0765C1.45848 18.2977 1.45847 20.051 1.63665 21.4219C1.81943 22.8281 2.20349 23.9634 3.07125 24.861C3.94301 25.7627 5.05236 26.1656 6.4257 26.3566C7.75673 26.5417 9.45665 26.5417 11.599 26.5416H16.4013C18.5436 26.5417 20.2436 26.5417 21.5746 26.3566C22.948 26.1656 24.0573 25.7627 24.9291 24.861C25.7968 23.9634 26.1809 22.8281 26.3637 21.4219C26.5419 20.051 26.5418 18.2977 26.5418 16.0765V14.1951C26.5418 12.8965 26.5418 11.8609 26.4623 11.0141C26.3802 10.1403 26.2089 9.40112 25.8286 8.70638C25.4476 8.01019 24.92 7.47445 24.2331 6.94842C23.5698 6.44045 22.7093 5.90637 21.6345 5.23938L19.2235 3.74301C18.0877 3.03808 17.1783 2.47371 16.3912 2.09093C15.5769 1.69494 14.8263 1.45831 14.0002 1.45831ZM9.65961 5.25478C10.8447 4.51931 11.6779 4.00344 12.3745 3.66471C13.0531 3.33469 13.5337 3.20831 14.0002 3.20831C14.4666 3.20831 14.9472 3.33469 15.6259 3.66471C16.3224 4.00344 17.1557 4.5193 18.3407 5.25478L20.674 6.70291C21.795 7.39862 22.5821 7.88822 23.1691 8.3378C23.7403 8.77523 24.0689 9.13621 24.2936 9.54664C24.519 9.95852 24.6506 10.4401 24.72 11.1779C24.7909 11.9333 24.7918 12.8868 24.7918 14.2379V16.0124C24.7918 18.3119 24.7901 19.9513 24.6283 21.1963C24.4693 22.419 24.17 23.1284 23.6709 23.6446C23.1758 24.1567 22.5018 24.4608 21.3336 24.6233C20.137 24.7897 18.5589 24.7916 16.3335 24.7916H11.6668C9.44138 24.7916 7.8633 24.7897 6.66675 24.6233C5.4985 24.4608 4.82449 24.1567 4.32942 23.6446C3.83034 23.1284 3.53098 22.419 3.37205 21.1963C3.21024 19.9513 3.2085 18.3119 3.2085 16.0124V14.2379C3.2085 12.8868 3.20939 11.9333 3.28038 11.1779C3.3497 10.4401 3.48132 9.95852 3.70677 9.54664C3.93143 9.13621 4.26004 8.77523 4.83123 8.3378C5.41828 7.88822 6.20531 7.39862 7.32628 6.70292L9.65961 5.25478Z" fill="#3D4057"/>
</svg>
