<svg width="28" height="28" viewBox="0 0 28 28" fill="none" xmlns="http://www.w3.org/2000/svg">
<path fill-rule="evenodd" clip-rule="evenodd" d="M19.1264 2.35806L19.204 2.37886C20.4866 2.72252 21.503 2.99486 22.3024 3.28366C23.1202 3.57906 23.7871 3.91699 24.3364 4.43153C25.1364 5.18077 25.6962 6.1504 25.9451 7.21781C26.116 7.95084 26.0752 8.69732 25.9222 9.55322C25.7726 10.39 25.5002 11.4064 25.1565 12.6891L24.5318 15.0205C24.1882 16.303 23.9158 17.3194 23.627 18.1188C23.3316 18.9366 22.9937 19.6035 22.4792 20.1528C21.7537 20.9273 20.8218 21.4767 19.7944 21.7368C19.4943 22.4249 19.056 23.0479 18.5031 23.5658C17.9537 24.0803 17.2869 24.4182 16.4691 24.7137C15.6697 25.0024 14.6533 25.2748 13.3707 25.6184L13.2932 25.6392C12.0105 25.9829 10.9941 26.2553 10.1573 26.4049C9.30141 26.5579 8.55494 26.5987 7.8219 26.4278C6.7545 26.1789 5.78486 25.6191 5.03562 24.8191C4.52108 24.2698 4.18316 23.6029 3.88775 22.7852C3.59895 21.9857 3.32661 20.9693 2.98295 19.6867L2.35825 17.3553C2.01458 16.0727 1.74222 15.0563 1.5926 14.2195C1.43955 13.3636 1.39878 12.6172 1.56969 11.8841C1.81858 10.8167 2.3784 9.84709 3.17836 9.09784C3.72772 8.58331 4.39457 8.24538 5.21233 7.94997C6.01179 7.66118 7.0282 7.38883 8.31081 7.04517L8.34959 7.03478C8.65813 6.9521 8.95006 6.87402 9.22646 6.80099C9.68334 5.16867 10.0854 4.01478 10.869 3.17817C11.6182 2.37821 12.5878 1.8184 13.6552 1.56951C14.3883 1.39859 15.1347 1.43937 15.9907 1.59242C16.8274 1.74204 17.8438 2.01439 19.1264 2.35806ZM8.69768 8.75324C7.42266 9.09497 6.50906 9.34223 5.8069 9.59587C5.09591 9.85271 4.67844 10.0906 4.37464 10.3751C3.8273 10.8877 3.44427 11.5512 3.27398 12.2815C3.17946 12.6869 3.18221 13.1673 3.31527 13.9115C3.45026 14.6664 3.70264 15.6111 4.05902 16.9411L4.66293 19.195C5.0193 20.525 5.27311 21.4693 5.53365 22.1906C5.79049 22.9016 6.02834 23.3191 6.31288 23.6229C6.82552 24.1702 7.48896 24.5532 8.21929 24.7235C8.62466 24.818 9.10512 24.8153 9.84927 24.6822C10.6042 24.5472 11.5489 24.2949 12.8789 23.9385C14.2089 23.5821 15.1533 23.3283 15.8745 23.0678C16.5855 22.8109 17.003 22.5731 17.3068 22.2885C17.4673 22.1382 17.6137 21.9749 17.7447 21.8009C17.5358 21.7714 17.3209 21.7338 17.0985 21.6896C16.3147 21.5337 15.3732 21.2815 14.2111 20.9701L14.1441 20.9521C12.8615 20.6085 11.8451 20.3361 11.0457 20.0473C10.2279 19.7519 9.56105 19.414 9.01169 18.8995C8.21173 18.1502 7.65191 17.1806 7.40303 16.1132C7.23211 15.3802 7.27288 14.6337 7.42593 13.7778C7.57556 12.941 7.84791 11.9246 8.19159 10.642L8.69768 8.75324ZM15.6826 3.31509C14.9385 3.18202 14.458 3.17928 14.0526 3.2738C13.3223 3.44409 12.6589 3.82712 12.1462 4.37446C11.6374 4.91769 11.3243 5.75692 10.7798 7.75041C10.6913 8.0744 10.5977 8.42358 10.4963 8.80234L9.89235 11.0562C9.53597 12.3862 9.28359 13.3309 9.14861 14.0858C9.01554 14.83 9.01279 15.3104 9.10731 15.7158C9.2776 16.4461 9.66063 17.1096 10.208 17.6222C10.5118 17.9067 10.9292 18.1446 11.6402 18.4014C12.3615 18.662 13.3058 18.9158 14.6359 19.2722C15.8322 19.5927 16.7188 19.8298 17.4397 19.9732C18.1575 20.1159 18.6446 20.1509 19.0439 20.1017C19.1307 20.091 19.2142 20.0762 19.2955 20.0572C20.0258 19.8869 20.6893 19.5039 21.2019 18.9565C21.4864 18.6527 21.7243 18.2353 21.9811 17.5243C22.2417 16.803 22.4955 15.8587 22.8519 14.5287L23.4558 12.2748C23.8121 10.9448 24.0645 10.0001 24.1995 9.24518C24.3326 8.50102 24.3353 8.02056 24.2408 7.61519C24.0705 6.88486 23.6875 6.22143 23.1401 5.70879C22.8363 5.42425 22.4189 5.1864 21.7079 4.92956C20.9866 4.66901 20.0423 4.41521 18.7123 4.05883C17.3822 3.70246 16.4375 3.45008 15.6826 3.31509Z" fill="#3D4057"/>
</svg>
