<svg width="528" height="138" viewBox="0 0 528 138" fill="none" xmlns="http://www.w3.org/2000/svg">
<g clip-path="url(#clip0_2_320)">
<g filter="url(#filter0_d_2_320)">
<path fill-rule="evenodd" clip-rule="evenodd" d="M1.09841 25.4203C-3.7434 11.5281 11.2363 -1.13617 25.2184 5.02848L106.105 40.6904C119.722 46.6946 119.678 65.0842 106.032 71.0236L24.9775 106.301C10.9662 112.399 -3.953 99.6641 0.954853 85.7957L9.76068 60.911C10.973 57.4851 10.9819 53.7784 9.78586 50.3467L1.09841 25.4203Z" fill="#FDD04D"/>
<path fill-rule="evenodd" clip-rule="evenodd" d="M1.09841 25.4203C-3.7434 11.5281 11.2363 -1.13617 25.2184 5.02848L106.105 40.6904C119.722 46.6946 119.678 65.0842 106.032 71.0236L24.9775 106.301C10.9662 112.399 -3.953 99.6641 0.954853 85.7957L9.76068 60.911C10.973 57.4851 10.9819 53.7784 9.78586 50.3467L1.09841 25.4203Z" fill="#9B52DC"/>
</g>
<g filter="url(#filter1_d_2_320)">
<path d="M177.093 85.9922C169.429 85.9922 162.556 84.6467 156.472 81.9556C150.387 79.2646 145.62 75.4913 142.168 70.6358C138.775 65.7218 137.079 60.018 137.079 53.5244C137.079 47.0309 138.775 41.3271 142.168 36.413C145.62 31.499 150.358 27.7257 156.384 25.0932C162.468 22.4022 169.371 21.0567 177.093 21.0567C184.464 21.0567 191.016 22.1974 196.749 24.4789C202.541 26.7605 207.074 29.9487 210.35 34.0438C213.626 38.1388 215.498 39.1456 215.615 44.4691L195.608 45.0834C195.316 40.5789 193.327 40.7128 189.992 38.0803C186.716 35.4478 182.416 34.1315 177.093 34.1315C173.407 34.1315 170.073 34.9505 167.089 36.5885C164.164 38.168 161.854 40.4203 160.157 43.3453C158.519 46.2704 157.7 49.6634 157.7 53.5244C157.7 57.3269 158.519 60.6615 160.157 63.528C161.854 66.3945 164.164 68.6175 167.089 70.197C170.073 71.7766 173.407 72.5663 177.093 72.5663C182.299 72.5663 186.57 71.2501 189.905 68.6175C193.298 65.985 195.199 65.0179 195.608 60.5719L215.615 61.0106C215.44 66.4512 213.714 68.676 210.438 72.8296C207.162 76.9831 202.628 80.2299 196.837 82.5699C191.104 84.8514 184.522 85.9922 177.093 85.9922Z" fill="#9B52DC"/>
<path d="M248.954 85.9922C243.104 85.9922 237.868 84.9684 233.246 82.9209C228.683 80.8734 225.115 78.0361 222.541 74.4091C219.967 70.7236 218.68 66.5408 218.68 61.8607C218.68 57.1807 219.967 53.0272 222.541 49.4001C225.115 45.7146 228.683 42.8481 233.246 40.8006C237.868 38.7531 243.104 37.7293 248.954 37.7293C254.804 37.7293 260.01 38.7531 264.574 40.8006C269.195 42.8481 272.793 45.7146 275.367 49.4001C277.941 53.0272 279.228 57.1807 279.228 61.8607C279.228 66.5408 277.941 70.7236 275.367 74.4091C272.793 78.0361 269.195 80.8734 264.574 82.9209C260.01 84.9684 254.804 85.9922 248.954 85.9922ZM248.954 73.8826C252.054 73.8826 254.57 72.7711 256.5 70.548C258.431 68.2665 259.396 65.3415 259.396 61.773C259.396 58.146 258.431 55.1917 256.5 52.9102C254.57 50.6286 252.054 49.4879 248.954 49.4879C245.853 49.4879 243.338 50.6286 241.407 52.9102C239.477 55.1917 238.512 58.146 238.512 61.773C238.512 65.3415 239.477 68.2665 241.407 70.548C243.338 72.7711 245.853 73.8826 248.954 73.8826Z" fill="#9B52DC"/>
</g>
<g opacity="0.9">
<path d="M317.406 37.59V50.6649H345.486V62.7745H317.406V86.2917H297.223V24.8662H348.119V37.59H317.406Z" fill="#3D4057"/>
<path d="M370.944 23.9887V86.2917H351.639V23.9887H370.944Z" fill="#3D4057"/>
<path d="M406.648 88.0467C400.798 88.0467 395.562 87.0229 390.94 84.9754C386.377 82.9279 382.809 80.0906 380.235 76.4636C377.661 72.7781 376.374 68.5953 376.374 63.9152C376.374 59.2352 377.661 55.0817 380.235 51.4546C382.809 47.7691 386.377 44.9026 390.94 42.8551C395.562 40.8076 400.798 39.7838 406.648 39.7838C412.498 39.7838 417.704 40.8076 422.267 42.8551C426.889 44.9026 430.486 47.7691 433.061 51.4546C435.635 55.0817 436.922 59.2352 436.922 63.9152C436.922 68.5953 435.635 72.7781 433.061 76.4636C430.486 80.0906 426.889 82.9279 422.267 84.9754C417.704 87.0229 412.498 88.0467 406.648 88.0467ZM406.648 75.9371C409.748 75.9371 412.264 74.8256 414.194 72.6026C416.125 70.321 417.09 67.396 417.09 63.8275C417.09 60.2005 416.125 57.2462 414.194 54.9647C412.264 52.6831 409.748 51.5424 406.648 51.5424C403.547 51.5424 401.032 52.6831 399.101 54.9647C397.17 57.2462 396.205 60.2005 396.205 63.8275C396.205 67.396 397.17 70.321 399.101 72.6026C401.032 74.8256 403.547 75.9371 406.648 75.9371Z" fill="#3D4057"/>
<path d="M436.49 41.5388H457.462L465.886 68.7415L474.31 41.5388H494.756L502.917 68.7415L511.955 41.5388H527.75L511.604 86.2917H492.299L483.085 57.9482L473.871 86.2917H452.811L436.49 41.5388Z" fill="#3D4057"/>
</g>
</g>
<defs>
<filter id="filter0_d_2_320" x="0" y="3.427" width="119.719" height="113.236" filterUnits="userSpaceOnUse" color-interpolation-filters="sRGB">
<feFlood flood-opacity="0" result="BackgroundImageFix"/>
<feColorMatrix in="SourceAlpha" type="matrix" values="0 0 0 0 0 0 0 0 0 0 0 0 0 0 0 0 0 0 127 0" result="hardAlpha"/>
<feOffset dx="3.42695" dy="8.79583"/>
<feComposite in2="hardAlpha" operator="out"/>
<feColorMatrix type="matrix" values="0 0 0 0 0.258824 0 0 0 0 0.0823529 0 0 0 0 0.411765 0 0 0 1 0"/>
<feBlend mode="normal" in2="BackgroundImageFix" result="effect1_dropShadow_2_320"/>
<feBlend mode="normal" in="SourceGraphic" in2="effect1_dropShadow_2_320" result="shape"/>
</filter>
<filter id="filter1_d_2_320" x="137.079" y="21.0567" width="142.149" height="73.7313" filterUnits="userSpaceOnUse" color-interpolation-filters="sRGB">
<feFlood flood-opacity="0" result="BackgroundImageFix"/>
<feColorMatrix in="SourceAlpha" type="matrix" values="0 0 0 0 0 0 0 0 0 0 0 0 0 0 0 0 0 0 127 0" result="hardAlpha"/>
<feOffset dy="8.79583"/>
<feComposite in2="hardAlpha" operator="out"/>
<feColorMatrix type="matrix" values="0 0 0 0 0.257007 0 0 0 0 0.0807813 0 0 0 0 0.4125 0 0 0 1 0"/>
<feBlend mode="normal" in2="BackgroundImageFix" result="effect1_dropShadow_2_320"/>
<feBlend mode="normal" in="SourceGraphic" in2="effect1_dropShadow_2_320" result="shape"/>
</filter>
<clipPath id="clip0_2_320">
<rect width="527.75" height="137.078" fill="white"/>
</clipPath>
</defs>
</svg>
